<svg width="22" height="22" viewBox="0 0 22 22" fill="none" xmlns="http://www.w3.org/2000/svg">
<g clip-path="url(#clip0_5136_5160)">
<path d="M22 10.9997C22 9.65414 21.758 8.36521 21.3158 7.1736L11 6.69531L0.684191 7.17355C0.242043 8.36521 0 9.65414 0 10.9997C0 12.3452 0.242043 13.6341 0.684191 14.8257L11 15.304L21.3158 14.8258C21.758 13.6341 22 12.3452 22 10.9997Z" fill="#0052B4"/>
<path d="M11 22.0001C15.7296 22.0001 19.7616 19.015 21.3158 14.8262H0.684204C2.23843 19.015 6.2704 22.0001 11 22.0001Z" fill="#FF9811"/>
<path d="M0.684204 7.17393H21.3159C19.7616 2.98513 15.7296 0 11 0C6.2704 0 2.23843 2.98513 0.684204 7.17393Z" fill="#D80027"/>
</g>
<defs>
<clipPath id="clip0_5136_5160">
<rect width="22" height="22" fill="white"/>
</clipPath>
</defs>
</svg>
